STARTFONT 2.3
FONT -FontForge-Monoton-Book-R-Normal--10-100-72-72-P-67-ISO10646-1
SIZE 10 72 72  4
FONTBOUNDINGBOX 19 16 -2 -4
COMMENT "Generated by fontforge, http://fontforge.sourceforge.net"
COMMENT "Copyright (c) 2011 by vernon adams. All rights reserved."
STARTPROPERTIES 41
FOUNDRY "FontForge"
FAMILY_NAME "Monoton"
WEIGHT_NAME "Book"
SLANT "R"
SETWIDTH_NAME "Normal"
ADD_STYLE_NAME ""
PIXEL_SIZE 10
POINT_SIZE 100
RESOLUTION_X 72
RESOLUTION_Y 72
SPACING "P"
AVERAGE_WIDTH 67
CHARSET_REGISTRY "ISO10646"
CHARSET_ENCODING "1"
FONTNAME_REGISTRY ""
CHARSET_COLLECTIONS "ISO8859-2 ISO8859-9 ISO8859-4 ISO10646-1"
BITS_PER_PIXEL 4
FONT_NAME "Monoton-Regular"
FACE_NAME "Monoton"
COPYRIGHT "Copyright (c) 2011 by vernon adams. All rights reserved."
FONT_VERSION "1.000"
FONT_ASCENT 8
FONT_DESCENT 2
UNDERLINE_POSITION 0
UNDERLINE_THICKNESS 1
X_HEIGHT 6
CAP_HEIGHT 8
DEFAULT_CHAR 1
RAW_ASCENT 799
RAW_DESCENT 200
NORM_SPACE 1
RELATIVE_WEIGHT 40
RELATIVE_SETWIDTH 50
SUPERSCRIPT_X 0
SUPERSCRIPT_Y 3
SUPERSCRIPT_SIZE 5
SUBSCRIPT_X 0
SUBSCRIPT_Y 0
SUBSCRIPT_SIZE 5
AVG_LOWERCASE_WIDTH 71
AVG_UPPERCASE_WIDTH 78
ENDPROPERTIES
CHARS 372
STARTCHAR glyph1.dup1
ENCODING 0
SWIDTH 108 0
DWIDTH 1 0
BBX 1 1 0 0
BITMAP
00
ENDCHAR
STARTCHAR uni0002
ENCODING 2
SWIDTH 108 0
DWIDTH 1 0
BBX 1 1 0 0
BITMAP
00
ENDCHAR
STARTCHAR uni0009
ENCODING 9
SWIDTH 108 0
DWIDTH 1 0
BBX 1 1 0 0
BITMAP
00
ENDCHAR
STARTCHAR uni000A
ENCODING 10
SWIDTH 108 0
DWIDTH 1 0
BBX 1 1 0 0
BITMAP
00
ENDCHAR
STARTCHAR uni000D
ENCODING 13
SWIDTH 108 0
DWIDTH 1 0
BBX 1 1 0 0
BITMAP
00
ENDCHAR
STARTCHAR space
ENCODING 32
SWIDTH 108 0
DWIDTH 1 0
BBX 1 1 0 0
BITMAP
00
ENDCHAR
STARTCHAR exclam
ENCODING 33
SWIDTH 336 0
DWIDTH 3 0
BBX 3 10 0 -1
BITMAP
0110
5890
5890
5890
5890
5890
5780
3550
3550
3550
ENDCHAR
STARTCHAR quotedbl
ENCODING 34
SWIDTH 538 0
DWIDTH 5 0
BBX 5 5 0 4
BITMAP
010110
583690
583690
583690
010010
ENDCHAR
STARTCHAR numbersign
ENCODING 35
SWIDTH 1014 0
DWIDTH 10 0
BBX 10 10 0 -1
BITMAP
0002320430
0006922850
0379878687
0588787875
0056508800
0069228500
2598576750
5887878750
2766388210
0351153000
ENDCHAR
STARTCHAR dollar
ENCODING 36
SWIDTH 686 0
DWIDTH 7 0
BBX 7 12 0 -2
BITMAP
00221000
00234100
18756830
677A8400
58853000
57778600
06987740
00459650
05787750
49768700
01232000
00221000
ENDCHAR
STARTCHAR percent
ENCODING 37
SWIDTH 1504 0
DWIDTH 15 0
BBX 15 10 0 -1
BITMAP
0045200000000000
1875840565000000
5788870691000000
5976591970355200
5788784754777820
1866855658888850
015530691A666A60
0000019707877750
0000047503867810
0000044300143000
ENDCHAR
STARTCHAR ampersand
ENCODING 38
SWIDTH 1029 0
DWIDTH 10 0
BBX 10 9 0 0
BITMAP
0001110110
0699965A70
4785535A70
5875535A70
5788887A78
5798887A78
5875555974
4786664785
058AAA0587
ENDCHAR
STARTCHAR quotesingle
ENCODING 39
SWIDTH 257 0
DWIDTH 3 0
BBX 3 5 0 4
BITMAP
0100
5830
5830
5830
0100
ENDCHAR
STARTCHAR parenleft
ENCODING 40
SWIDTH 410 0
DWIDTH 4 0
BBX 4 10 0 -1
BITMAP
0044
0774
5777
5881
5870
5870
5870
5785
1878
0154
ENDCHAR
STARTCHAR parenright
ENCODING 41
SWIDTH 408 0
DWIDTH 4 0
BBX 4 10 0 -1
BITMAP
3400
4780
6775
07A5
05A6
05A6
06A5
4885
7882
3520
ENDCHAR
STARTCHAR asterisk
ENCODING 42
SWIDTH 664 0
DWIDTH 7 0
BBX 7 6 0 1
BITMAP
02573200
28878700
48798710
48697720
28878700
01573100
ENDCHAR
STARTCHAR plus
ENCODING 43
SWIDTH 601 0
DWIDTH 6 0
BBX 6 6 0 1
BITMAP
013210
038640
5A86A5
488694
038640
012110
ENDCHAR
STARTCHAR comma
ENCODING 44
SWIDTH 252 0
DWIDTH 3 0
BBX 3 4 0 -2
BITMAP
4620
3820
3810
3200
ENDCHAR
STARTCHAR hyphen
ENCODING 45
SWIDTH 473 0
DWIDTH 5 0
BBX 5 2 0 3
BITMAP
588830
477720
ENDCHAR
STARTCHAR period
ENCODING 46
SWIDTH 255 0
DWIDTH 3 0
BBX 3 2 0 0
BITMAP
4610
6A20
ENDCHAR
STARTCHAR slash
ENCODING 47
SWIDTH 447 0
DWIDTH 4 0
BBX 5 10 0 -1
BITMAP
000100
006920
009800
038500
056500
069200
098000
385000
565000
582000
ENDCHAR
STARTCHAR zero
ENCODING 48
SWIDTH 843 0
DWIDTH 8 0
BBX 9 10 0 -1
BITMAP
0015530000
0496687000
2988978600
5784178800
5970055910
5980055910
5785378800
1987877500
0397696000
0004520000
ENDCHAR
STARTCHAR one
ENCODING 49
SWIDTH 426 0
DWIDTH 4 0
BBX 4 9 0 0
BITMAP
1111
7998
4787
0597
0597
0597
0597
0597
0597
ENDCHAR
STARTCHAR two
ENCODING 50
SWIDTH 583 0
DWIDTH 6 0
BBX 6 9 0 0
BITMAP
255400
566781
39A775
121965
006783
048760
288700
477761
6AAAA1
ENDCHAR
STARTCHAR three
ENCODING 51
SWIDTH 612 0
DWIDTH 6 0
BBX 6 10 0 -1
BITMAP
255400
565771
399786
135796
037985
038776
1457A7
288776
675771
145300
ENDCHAR
STARTCHAR four
ENCODING 52
SWIDTH 622 0
DWIDTH 6 0
BBX 6 9 0 0
BITMAP
000010
007881
038760
068820
297644
677666
688888
455576
000055
ENDCHAR
STARTCHAR five
ENCODING 53
SWIDTH 691 0
DWIDTH 7 0
BBX 7 10 0 -1
BITMAP
11111100
49999800
47755500
56753000
56758700
569A7750
01439860
15787750
48768600
01442000
ENDCHAR
STARTCHAR six
ENCODING 54
SWIDTH 781 0
DWIDTH 8 0
BBX 8 10 0 -1
BITMAP
00255300
05855870
47789620
57866300
59766860
59779774
57843975
47788774
05866950
00144100
ENDCHAR
STARTCHAR seven
ENCODING 55
SWIDTH 631 0
DWIDTH 6 0
BBX 6 9 0 0
BITMAP
111111
799789
455796
001965
005683
005790
007960
019660
056830
ENDCHAR
STARTCHAR eight
ENCODING 56
SWIDTH 808 0
DWIDTH 8 0
BBX 8 10 0 -1
BITMAP
00455400
18756771
67799775
58855795
57767985
47988675
58755796
57788776
06755771
00355400
ENDCHAR
STARTCHAR nine
ENCODING 57
SWIDTH 782 0
DWIDTH 8 0
BBX 8 10 0 -1
BITMAP
00355100
07855840
67798772
69835966
57785965
06866965
00367855
03687782
07867840
00253100
ENDCHAR
STARTCHAR colon
ENCODING 58
SWIDTH 262 0
DWIDTH 3 0
BBX 3 5 0 1
BITMAP
5A20
4710
1300
5820
3510
ENDCHAR
STARTCHAR semicolon
ENCODING 59
SWIDTH 261 0
DWIDTH 3 0
BBX 3 6 0 0
BITMAP
5A20
4710
1100
5830
2830
5700
ENDCHAR
STARTCHAR less
ENCODING 60
SWIDTH 670 0
DWIDTH 7 0
BBX 7 8 0 0
BITMAP
00001520
00369630
47878830
49696400
67776400
46978730
00268720
00000420
ENDCHAR
STARTCHAR equal
ENCODING 61
SWIDTH 473 0
DWIDTH 5 0
BBX 5 5 0 1
BITMAP
5AAA30
477720
133310
588830
355520
ENDCHAR
STARTCHAR greater
ENCODING 62
SWIDTH 670 0
DWIDTH 7 0
BBX 7 8 0 0
BITMAP
34000000
47862000
67868720
05686930
15787720
66969620
48751000
33000000
ENDCHAR
STARTCHAR question
ENCODING 63
SWIDTH 693 0
DWIDTH 7 0
BBX 7 9 0 0
BITMAP
02553000
48668600
15997760
01239860
09887750
09858700
08742000
16600000
1AA00000
ENDCHAR
STARTCHAR at
ENCODING 64
SWIDTH 1076 0
DWIDTH 11 0
BBX 11 10 0 -1
BITMAP
001566540000
02879A876100
188645468600
566586846830
583975875550
574964884650
666585686650
188655479600
03879A500000
001655400000
ENDCHAR
STARTCHAR A
ENCODING 65
SWIDTH 936 0
DWIDTH 9 0
BBX 10 9 0 0
BITMAP
0001110000
000A783000
0046986000
0068779100
0197786500
0568379700
0797576830
4869A89760
6891006791
ENDCHAR
STARTCHAR B
ENCODING 66
SWIDTH 862 0
DWIDTH 9 0
BBX 9 9 0 0
BITMAP
1111110000
69999A8300
5765568800
5895576740
5897887820
5897897820
5895576830
5896678800
5899AA7200
ENDCHAR
STARTCHAR C
ENCODING 67
SWIDTH 852 0
DWIDTH 9 0
BBX 9 10 0 -1
BITMAP
0004551000
0277568400
0887988710
5786146000
5970000000
5970000000
5786256100
0787877710
0178578400
0003540000
ENDCHAR
STARTCHAR D
ENCODING 68
SWIDTH 886 0
DWIDTH 9 0
BBX 9 9 0 0
BITMAP
1111100000
6999997100
5765578700
5895578840
589001A650
5890019650
5895576830
5776688700
69AAA96000
ENDCHAR
STARTCHAR E
ENCODING 69
SWIDTH 706 0
DWIDTH 7 0
BBX 7 9 0 0
BITMAP
01111110
58999960
58955540
58900000
58987000
58976000
58900000
58966640
589AAA60
ENDCHAR
STARTCHAR F
ENCODING 70
SWIDTH 683 0
DWIDTH 7 0
BBX 7 9 0 0
BITMAP
01111110
58999940
58955520
58900000
58955520
58988820
58933310
58900000
58900000
ENDCHAR
STARTCHAR G
ENCODING 71
SWIDTH 908 0
DWIDTH 9 0
BBX 9 10 0 -1
BITMAP
0004551000
0277568400
0887988710
5786146000
5970001210
5870006950
5776238950
1986888950
0278568950
0003541000
ENDCHAR
STARTCHAR H
ENCODING 72
SWIDTH 901 0
DWIDTH 9 0
BBX 9 9 0 0
BITMAP
0110001100
5890009850
5890009850
5890009850
5898889850
5897779850
5890009850
5890009850
5890009850
ENDCHAR
STARTCHAR I
ENCODING 73
SWIDTH 338 0
DWIDTH 3 0
BBX 3 9 0 0
BITMAP
0110
5890
5890
5890
5890
5890
5890
5890
5890
ENDCHAR
STARTCHAR J
ENCODING 74
SWIDTH 434 0
DWIDTH 4 0
BBX 4 10 0 -1
BITMAP
0011
0588
0588
0588
0588
0588
1798
7776
4871
4300
ENDCHAR
STARTCHAR K
ENCODING 75
SWIDTH 815 0
DWIDTH 8 0
BBX 8 9 0 0
BITMAP
01100111
58902876
58906782
58928760
58967820
58967820
58928760
58906783
58902886
ENDCHAR
STARTCHAR L
ENCODING 76
SWIDTH 604 0
DWIDTH 6 0
BBX 6 9 0 0
BITMAP
011000
589000
589000
589000
589000
589000
589000
589665
589AA7
ENDCHAR
STARTCHAR M
ENCODING 77
SWIDTH 920 0
DWIDTH 9 0
BBX 9 9 0 0
BITMAP
1110000110
7870006790
5784028860
5787067960
5787687860
5878766A60
5895685A60
5890005A60
5890005A60
ENDCHAR
STARTCHAR N
ENCODING 78
SWIDTH 877 0
DWIDTH 9 0
BBX 9 9 0 0
BITMAP
1110001100
7877028650
5778428650
5788838650
5887778650
5887788650
5892887650
5890677650
5890078850
ENDCHAR
STARTCHAR O
ENCODING 79
SWIDTH 933 0
DWIDTH 9 0
BBX 9 10 0 -1
BITMAP
0004551000
0277568400
0887978830
5786148870
5970005690
5970005690
5786258860
0787868820
0178578300
0003540000
ENDCHAR
STARTCHAR P
ENCODING 80
SWIDTH 850 0
DWIDTH 9 0
BBX 9 9 0 0
BITMAP
1111110000
69999A7200
5765568800
5895576920
5894566910
5896787700
5897886100
5890000000
5890000000
ENDCHAR
STARTCHAR Q
ENCODING 81
SWIDTH 937 0
DWIDTH 9 0
BBX 9 10 0 -1
BITMAP
0004551000
0277568400
0887978830
5786148870
5970005690
5970057690
5786678860
0787868820
0178578710
0003545510
ENDCHAR
STARTCHAR R
ENCODING 82
SWIDTH 843 0
DWIDTH 8 0
BBX 9 9 0 0
BITMAP
1111110000
69999A7200
5765568700
5895576910
5895677910
5899A98700
589578A000
5890579200
5890197500
ENDCHAR
STARTCHAR S
ENCODING 83
SWIDTH 682 0
DWIDTH 7 0
BBX 7 10 0 -1
BITMAP
00455100
18756830
678A8400
59853000
57778600
06987740
00459650
15787740
49768700
01452000
ENDCHAR
STARTCHAR T
ENCODING 84
SWIDTH 591 0
DWIDTH 6 0
BBX 6 9 0 0
BITMAP
111111
799995
477863
046830
046830
046830
046830
046830
046830
ENDCHAR
STARTCHAR U
ENCODING 85
SWIDTH 905 0
DWIDTH 9 0
BBX 9 10 0 -1
BITMAP
0110001100
5880008850
5880008850
5880008850
5880008850
5880008850
5686268650
1886868810
0277577200
0003530000
ENDCHAR
STARTCHAR V
ENCODING 86
SWIDTH 940 0
DWIDTH 9 0
BBX 10 9 0 0
BITMAP
1110001110
6791006881
3865019760
0797056830
0568479700
0198786500
0067778100
0036976000
000A683000
ENDCHAR
STARTCHAR W
ENCODING 87
SWIDTH 1161 0
DWIDTH 12 0
BBX 12 9 0 0
BITMAP
111001100100
588069934674
568388865790
296886A67960
079669899650
0577997A6830
056976988800
018774698500
009791686500
ENDCHAR
STARTCHAR X
ENCODING 88
SWIDTH 876 0
DWIDTH 9 0
BBX 9 9 0 0
BITMAP
1110011100
5775088810
0788677500
0387877000
0058882000
0057775000
0188778200
0778687700
4876067840
ENDCHAR
STARTCHAR Y
ENCODING 89
SWIDTH 789 0
DWIDTH 8 0
BBX 8 9 0 0
BITMAP
11000110
57801875
28755781
05878750
02877810
00687500
00467300
00468300
00468300
ENDCHAR
STARTCHAR Z
ENCODING 90
SWIDTH 854 0
DWIDTH 9 0
BBX 9 9 0 0
BITMAP
1111111100
6999997A10
3555558710
3556788810
0048777300
1688861000
5778655510
5865666610
699AAAAA10
ENDCHAR
STARTCHAR bracketleft
ENCODING 91
SWIDTH 320 0
DWIDTH 3 0
BBX 3 10 0 -1
BITMAP
3550
5750
5870
5830
5830
5830
5830
5840
5990
5550
ENDCHAR
STARTCHAR backslash
ENCODING 92
SWIDTH 448 0
DWIDTH 4 0
BBX 5 10 0 -1
BITMAP
010000
683000
565000
296000
088000
068300
056500
029600
008800
005820
ENDCHAR
STARTCHAR bracketright
ENCODING 93
SWIDTH 319 0
DWIDTH 3 0
BBX 3 10 0 -1
BITMAP
4540
4760
4A60
0A60
0A60
0A60
0A60
1A60
7A60
4560
ENDCHAR
STARTCHAR asciicircum
ENCODING 94
SWIDTH 475 0
DWIDTH 5 0
BBX 5 4 0 3
BITMAP
058200
078600
383800
550640
ENDCHAR
STARTCHAR underscore
ENCODING 95
SWIDTH 511 0
DWIDTH 5 0
BBX 5 2 0 -2
BITMAP
6AAA60
466640
ENDCHAR
STARTCHAR grave
ENCODING 96
SWIDTH 472 0
DWIDTH 5 0
BBX 5 3 0 7
BITMAP
040000
387400
005610
ENDCHAR
STARTCHAR a
ENCODING 97
SWIDTH 832 0
DWIDTH 8 0
BBX 8 9 0 -1
BITMAP
00033000
03778840
27766874
67855797
6A700588
67843688
28866688
03798788
00022000
ENDCHAR
STARTCHAR b
ENCODING 98
SWIDTH 720 0
DWIDTH 7 0
BBX 7 7 0 0
BITMAP
61000520
57656850
57655850
57666770
57645850
57777860
57211520
ENDCHAR
STARTCHAR c
ENCODING 99
SWIDTH 736 0
DWIDTH 7 0
BBX 7 9 0 -1
BITMAP
00155200
04876860
28788740
57843300
5A700000
57843300
28777750
03866860
00145100
ENDCHAR
STARTCHAR d
ENCODING 100
SWIDTH 833 0
DWIDTH 8 0
BBX 8 7 0 0
BITMAP
69AAA740
57656884
58955787
58900579
58955787
57767884
69AAA740
ENDCHAR
STARTCHAR e
ENCODING 101
SWIDTH 666 0
DWIDTH 7 0
BBX 7 7 0 0
BITMAP
589AAA30
58955510
58955500
58955500
58955500
58966620
589AAA30
ENDCHAR
STARTCHAR f
ENCODING 102
SWIDTH 625 0
DWIDTH 6 0
BBX 6 7 0 0
BITMAP
589AA9
589555
589332
589885
589554
589000
589000
ENDCHAR
STARTCHAR g
ENCODING 103
SWIDTH 827 0
DWIDTH 8 0
BBX 8 9 0 -1
BITMAP
00155200
04876860
28788740
57843300
5A700344
57843888
28778888
03866988
00145100
ENDCHAR
STARTCHAR h
ENCODING 104
SWIDTH 830 0
DWIDTH 8 0
BBX 8 7 0 0
BITMAP
58900598
58900598
58955798
58988898
58933698
58900598
58900598
ENDCHAR
STARTCHAR i
ENCODING 105
SWIDTH 337 0
DWIDTH 3 0
BBX 3 7 0 0
BITMAP
5890
5890
5890
5890
5890
5890
5890
ENDCHAR
STARTCHAR j
ENCODING 106
SWIDTH 393 0
DWIDTH 4 0
BBX 4 8 0 -1
BITMAP
0975
0975
0975
0975
0975
5866
5881
7720
ENDCHAR
STARTCHAR k
ENCODING 107
SWIDTH 801 0
DWIDTH 8 0
BBX 8 7 0 0
BITMAP
58903876
58907881
58947750
58968910
58947750
58907881
58903876
ENDCHAR
STARTCHAR l
ENCODING 108
SWIDTH 583 0
DWIDTH 6 0
BBX 6 7 0 0
BITMAP
589000
589000
589000
589000
589000
589663
589AA5
ENDCHAR
STARTCHAR m
ENCODING 109
SWIDTH 1167 0
DWIDTH 12 0
BBX 12 8 0 0
BITMAP
002540254100
068579A66840
577978998781
588266A35773
588055A13774
588055A13774
588055A13774
588055A13774
ENDCHAR
STARTCHAR n
ENCODING 110
SWIDTH 787 0
DWIDTH 8 0
BBX 8 7 0 0
BITMAP
78760555
57783555
57887555
57877955
58478865
58347765
58307886
ENDCHAR
STARTCHAR o
ENCODING 111
SWIDTH 833 0
DWIDTH 8 0
BBX 8 9 0 -1
BITMAP
00155200
04876850
28789775
57843797
5A700579
57843797
28778774
03866850
00145100
ENDCHAR
STARTCHAR p
ENCODING 112
SWIDTH 781 0
DWIDTH 8 0
BBX 8 7 0 0
BITMAP
69AAA740
57656882
58956865
5898A764
58956780
58945400
58900000
ENDCHAR
STARTCHAR q
ENCODING 113
SWIDTH 788 0
DWIDTH 8 0
BBX 8 9 0 -2
BITMAP
0379AA86
37865765
58856965
69722A65
57798A65
07865A65
00355A65
00001A65
00000100
ENDCHAR
STARTCHAR r
ENCODING 114
SWIDTH 831 0
DWIDTH 8 0
BBX 8 7 0 0
BITMAP
69AAA961
57655786
58966779
58989887
58955594
58959B70
58905792
ENDCHAR
STARTCHAR s
ENCODING 115
SWIDTH 683 0
DWIDTH 7 0
BBX 7 9 0 -1
BITMAP
00131000
1798A730
68656600
68654000
38756810
01457650
17657750
47A99600
00120000
ENDCHAR
STARTCHAR t
ENCODING 116
SWIDTH 588 0
DWIDTH 6 0
BBX 6 7 0 0
BITMAP
7AAAA5
466663
046820
046820
046820
046820
046820
ENDCHAR
STARTCHAR u
ENCODING 117
SWIDTH 795 0
DWIDTH 8 0
BBX 8 8 0 -1
BITMAP
58800975
58800975
58800975
58800975
56844966
27877882
04866840
00154100
ENDCHAR
STARTCHAR v
ENCODING 118
SWIDTH 855 0
DWIDTH 9 0
BBX 9 7 0 0
BITMAP
6791056830
3865079700
0797476500
0568788100
0196976000
0068683000
0048970000
ENDCHAR
STARTCHAR w
ENCODING 119
SWIDTH 1129 0
DWIDTH 11 0
BBX 11 8 0 -1
BITMAP
588058805880
588058805880
588058805880
588058805880
578469846970
477677967750
059898989600
000210121000
ENDCHAR
STARTCHAR x
ENCODING 120
SWIDTH 790 0
DWIDTH 8 0
BBX 8 7 0 0
BITMAP
67767775
07888770
03788820
00777700
03887820
07888770
67766775
ENDCHAR
STARTCHAR y
ENCODING 121
SWIDTH 733 0
DWIDTH 7 0
BBX 7 7 0 0
BITMAP
68815780
28768750
05777810
01787500
00769100
00569000
00569000
ENDCHAR
STARTCHAR z
ENCODING 122
SWIDTH 714 0
DWIDTH 7 0
BBX 7 7 0 0
BITMAP
6AA88860
36677830
00577600
01888100
06775000
38876650
5888AA80
ENDCHAR
STARTCHAR braceleft
ENCODING 123
SWIDTH 396 0
DWIDTH 4 0
BBX 4 12 0 -3
BITMAP
0054
0674
1963
2950
2950
5740
6750
2850
2950
0964
0496
0001
ENDCHAR
STARTCHAR bar
ENCODING 124
SWIDTH 266 0
DWIDTH 3 0
BBX 3 10 0 -1
BITMAP
0100
5830
5830
5830
5830
5830
5830
5830
5830
5830
ENDCHAR
STARTCHAR braceright
ENCODING 125
SWIDTH 396 0
DWIDTH 4 0
BBX 4 12 0 -3
BITMAP
4400
4760
3691
0591
0594
0475
0584
0591
0591
4790
6840
1000
ENDCHAR
STARTCHAR asciitilde
ENCODING 126
SWIDTH 665 0
DWIDTH 7 0
BBX 7 3 0 5
BITMAP
05553220
56555730
22555300
ENDCHAR
STARTCHAR uni00A0
ENCODING 160
SWIDTH 108 0
DWIDTH 1 0
BBX 1 1 0 0
BITMAP
00
ENDCHAR
STARTCHAR exclamdown
ENCODING 161
SWIDTH 336 0
DWIDTH 3 0
BBX 3 10 0 -1
BITMAP
0110
5890
5890
5890
5890
5890
5780
3550
3550
3550
ENDCHAR
STARTCHAR cent
ENCODING 162
SWIDTH 708 0
DWIDTH 7 0
BBX 7 10 0 -1
BITMAP
00055000
00545400
07798750
57878510
69701000
68823100
48798720
05866850
00333200
00054000
ENDCHAR
STARTCHAR sterling
ENCODING 163
SWIDTH 689 0
DWIDTH 7 0
BBX 7 9 0 0
BITMAP
00455100
18756940
577A8400
58811000
58856400
5889A600
58800000
58866400
589AA700
ENDCHAR
STARTCHAR currency
ENCODING 164
SWIDTH 715 0
DWIDTH 7 0
BBX 7 9 0 -1
BITMAP
03000300
57645860
18868720
08402910
09100820
07615800
48798750
27302840
01000100
ENDCHAR
STARTCHAR yen
ENCODING 165
SWIDTH 796 0
DWIDTH 8 0
BBX 8 9 0 0
BITMAP
11000111
57811875
18755791
06878850
02877810
00688600
05777740
05778740
00478300
ENDCHAR
STARTCHAR brokenbar
ENCODING 166
SWIDTH 263 0
DWIDTH 3 0
BBX 3 10 0 -1
BITMAP
0100
5830
5830
5830
4620
0000
4620
5830
5830
5830
ENDCHAR
STARTCHAR section
ENCODING 167
SWIDTH 108 0
DWIDTH 1 0
BBX 1 1 0 0
BITMAP
00
ENDCHAR
STARTCHAR dieresis
ENCODING 168
SWIDTH 556 0
DWIDTH 6 0
BBX 6 2 0 7
BITMAP
241241
351351
ENDCHAR
STARTCHAR copyright
ENCODING 169
SWIDTH 869 0
DWIDTH 9 0
BBX 9 9 0 0
BITMAP
0015640000
0483248100
1849793800
7290001530
8450000250
8280000440
3767483900
0662428300
0027771000
ENDCHAR
STARTCHAR ordfeminine
ENCODING 170
SWIDTH 833 0
DWIDTH 8 0
BBX 8 9 0 -1
BITMAP
00023000
03788850
17866874
66854797
58700579
57853779
18866779
03798879
00022000
ENDCHAR
STARTCHAR guillemotleft
ENCODING 171
SWIDTH 911 0
DWIDTH 9 0
BBX 9 5 0 1
BITMAP
0157204660
4969277860
5776297720
4696368760
0026100540
ENDCHAR
STARTCHAR logicalnot
ENCODING 172
SWIDTH 718 0
DWIDTH 7 0
BBX 7 4 0 2
BITMAP
24444320
47777A60
35556A60
00000950
ENDCHAR
STARTCHAR registered
ENCODING 174
SWIDTH 869 0
DWIDTH 9 0
BBX 9 9 0 0
BITMAP
0015640000
0483148100
1828861800
7145073530
804A7A1250
8045360440
3734080900
0660018300
0027771000
ENDCHAR
STARTCHAR degree
ENCODING 176
SWIDTH 330 0
DWIDTH 3 0
BBX 3 4 0 7
BITMAP
0410
5580
5670
0310
ENDCHAR
STARTCHAR plusminus
ENCODING 177
SWIDTH 598 0
DWIDTH 6 0
BBX 6 7 0 0
BITMAP
012210
038640
5A86A5
498694
038640
267762
255552
ENDCHAR
STARTCHAR uni00B2
ENCODING 178
SWIDTH 435 0
DWIDTH 4 0
BBX 5 8 0 1
BITMAP
001000
49A700
112910
007500
057000
382000
577500
344300
ENDCHAR
STARTCHAR uni00B3
ENCODING 179
SWIDTH 515 0
DWIDTH 5 0
BBX 5 8 0 1
BITMAP
001000
699600
356750
036750
046740
146970
399760
355500
ENDCHAR
STARTCHAR acute
ENCODING 180
SWIDTH 472 0
DWIDTH 5 0
BBX 5 3 0 7
BITMAP
000400
158620
263000
ENDCHAR
STARTCHAR uni00B5
ENCODING 181
SWIDTH 802 0
DWIDTH 8 0
BBX 8 9 0 -2
BITMAP
57900895
57900895
57900895
57900895
57924876
57977882
57956840
57945100
00100000
ENDCHAR
STARTCHAR paragraph
ENCODING 182
SWIDTH 676 0
DWIDTH 7 0
BBX 7 9 0 -2
BITMAP
058AA840
47856640
58778640
578B8640
19678640
01578640
00028640
0002A740
00001100
ENDCHAR
STARTCHAR periodcentered
ENCODING 183
SWIDTH 260 0
DWIDTH 3 0
BBX 3 3 0 3
BITMAP
3510
5810
1200
ENDCHAR
STARTCHAR cedilla
ENCODING 184
SWIDTH 321 0
DWIDTH 3 0
BBX 3 4 0 -4
BITMAP
0330
4860
5730
2640
ENDCHAR
STARTCHAR uni00B9
ENCODING 185
SWIDTH 359 0
DWIDTH 4 0
BBX 4 7 0 2
BITMAP
1110
7AA2
0582
0582
0582
0582
0341
ENDCHAR
STARTCHAR ordmasculine
ENCODING 186
SWIDTH 835 0
DWIDTH 8 0
BBX 8 9 0 -1
BITMAP
00145200
03876860
28789775
57852787
59700569
57853787
18778775
03776860
00045200
ENDCHAR
STARTCHAR guillemotright
ENCODING 187
SWIDTH 912 0
DWIDTH 9 0
BBX 9 5 0 1
BITMAP
5640175200
4878286850
2768257770
5686378640
3510163000
ENDCHAR
STARTCHAR onequarter
ENCODING 188
SWIDTH 1236 0
DWIDTH 12 0
BBX 13 10 0 -1
BITMAP
11100000000000
7AA10674000000
05920691044000
05921970576000
05924750783000
05926644865500
03516914777710
00019705999910
00047500005500
00056400000000
ENDCHAR
STARTCHAR onehalf
ENCODING 189
SWIDTH 1154 0
DWIDTH 12 0
BBX 12 10 0 -1
BITMAP
111000000000
7AA106740000
059206923520
059219727682
059247500192
059266400750
035169105700
000197027210
00047505AAA0
000564000000
ENDCHAR
STARTCHAR threequarters
ENCODING 190
SWIDTH 1345 0
DWIDTH 13 0
BBX 14 10 0 -1
BITMAP
00000001100000
69960029600000
46675056504510
03775068348700
04674088078400
14697296387550
39976565377771
35550683499992
00000880000550
00002850000000
ENDCHAR
STARTCHAR questiondown
ENCODING 191
SWIDTH 693 0
DWIDTH 7 0
BBX 7 9 0 0
BITMAP
02553000
48668600
15997760
01239860
09887750
09858700
08742000
16600000
1AA00000
ENDCHAR
STARTCHAR Agrave
ENCODING 192
SWIDTH 936 0
DWIDTH 9 0
BBX 10 12 0 0
BITMAP
0040000000
0377500000
0004620000
0001110000
000A783000
0046986000
0068779100
0197786500
0568379700
0797576830
4869A89760
6891006791
ENDCHAR
STARTCHAR Aacute
ENCODING 193
SWIDTH 936 0
DWIDTH 9 0
BBX 10 12 0 0
BITMAP
0000003100
0000368500
0000561000
0001110000
000A783000
0046986000
0068779100
0197786500
0568379700
0797576830
4869A89760
6891006791
ENDCHAR
STARTCHAR Acircumflex
ENCODING 194
SWIDTH 936 0
DWIDTH 9 0
BBX 10 11 0 0
BITMAP
0001850000
0005770000
0002231000
000A783000
0046986000
0068779100
0197786500
0568379700
0797576830
4869A89760
6891006791
ENDCHAR
STARTCHAR Atilde
ENCODING 195
SWIDTH 936 0
DWIDTH 9 0
BBX 10 11 0 0
BITMAP
0035552200
0275556500
0224665000
000A783000
0046986000
0068779100
0197786500
0568379700
0797576830
4869A89760
6891006791
ENDCHAR
STARTCHAR Adieresis
ENCODING 196
SWIDTH 936 0
DWIDTH 9 0
BBX 10 11 0 0
BITMAP
0025025000
0036036000
0001110000
000A783000
0046986000
0068779100
0197786500
0568379700
0797576830
4869A89760
6891006791
ENDCHAR
STARTCHAR Aring
ENCODING 197
SWIDTH 936 0
DWIDTH 9 0
BBX 10 12 0 0
BITMAP
0000420000
0005580000
0004680000
0001420000
000A783000
0046986000
0068779100
0197786500
0568379700
0797576830
4869A89760
6891006791
ENDCHAR
STARTCHAR AE
ENCODING 198
SWIDTH 1198 0
DWIDTH 12 0
BBX 12 9 0 0
BITMAP
000111111111
000A67B99996
004698855553
006877910000
0197786A8880
056837987770
079757683000
4869A8978664
67910068AAA6
ENDCHAR
STARTCHAR Ccedilla
ENCODING 199
SWIDTH 852 0
DWIDTH 9 0
BBX 9 13 0 -4
BITMAP
0004551000
0277568400
0887988710
5786146000
5970000000
5970000000
5786256100
0787877710
0178578400
0003950000
0008820000
0019510000
0005610000
ENDCHAR
STARTCHAR Egrave
ENCODING 200
SWIDTH 706 0
DWIDTH 7 0
BBX 7 12 0 0
BITMAP
04000000
38740000
00561000
01111110
58999960
58955540
58900000
58987000
58976000
58900000
58966640
589AAA60
ENDCHAR
STARTCHAR Eacute
ENCODING 201
SWIDTH 706 0
DWIDTH 7 0
BBX 7 12 0 0
BITMAP
00000310
00046840
00165000
01111110
58999960
58955540
58900000
58987000
58976000
58900000
58966640
589AAA60
ENDCHAR
STARTCHAR Ecircumflex
ENCODING 202
SWIDTH 706 0
DWIDTH 7 0
BBX 7 11 0 0
BITMAP
00384000
00686000
01213110
58999960
58955540
58900000
58987000
58976000
58900000
58966640
589AAA60
ENDCHAR
STARTCHAR Edieresis
ENCODING 203
SWIDTH 706 0
DWIDTH 7 0
BBX 7 11 0 0
BITMAP
03403400
04504500
01111110
58999960
58955540
58900000
58987000
58976000
58900000
58966640
589AAA60
ENDCHAR
STARTCHAR Igrave
ENCODING 204
SWIDTH 338 0
DWIDTH 3 0
BBX 5 12 -2 0
BITMAP
040000
377500
004620
000110
005890
005890
005890
005890
005890
005890
005890
005890
ENDCHAR
STARTCHAR Iacute
ENCODING 205
SWIDTH 338 0
DWIDTH 3 0
BBX 5 12 0 0
BITMAP
000310
036850
056100
011000
589000
589000
589000
589000
589000
589000
589000
589000
ENDCHAR
STARTCHAR Icircumflex
ENCODING 206
SWIDTH 338 0
DWIDTH 3 0
BBX 4 11 0 0
BITMAP
1850
5770
2231
5890
5890
5890
5890
5890
5890
5890
5890
ENDCHAR
STARTCHAR Idieresis
ENCODING 207
SWIDTH 338 0
DWIDTH 3 0
BBX 5 11 -1 0
BITMAP
250250
360360
001100
058900
058900
058900
058900
058900
058900
058900
058900
ENDCHAR
STARTCHAR Eth
ENCODING 208
SWIDTH 905 0
DWIDTH 9 0
BBX 9 9 0 0
BITMAP
1111110000
58999A7200
5575568810
5586568750
6888008950
5777008950
5596567750
5676688800
58AAA96100
ENDCHAR
STARTCHAR Ntilde
ENCODING 209
SWIDTH 877 0
DWIDTH 9 0
BBX 9 11 0 0
BITMAP
0055532200
0565557300
1335564100
7877028650
5778428650
5788838650
5887778650
5887788650
5892887650
5890677650
5890078850
ENDCHAR
STARTCHAR Ograve
ENCODING 210
SWIDTH 933 0
DWIDTH 9 0
BBX 9 13 0 -1
BITMAP
0040000000
0377500000
0004620000
0004551000
0277568400
0887978830
5786148870
5970005690
5970005690
5786258860
0787868820
0178578300
0003540000
ENDCHAR
STARTCHAR Oacute
ENCODING 211
SWIDTH 933 0
DWIDTH 9 0
BBX 9 13 0 -1
BITMAP
0000003100
0000368500
0000561000
0004551000
0277568400
0887978830
5786148870
5970005690
5970005690
5786258860
0787868820
0178578300
0003540000
ENDCHAR
STARTCHAR Ocircumflex
ENCODING 212
SWIDTH 933 0
DWIDTH 9 0
BBX 9 12 0 -1
BITMAP
0001850000
0005770000
0001200000
0277568400
0887978830
5786148870
5970005690
5970005690
5786258860
0787868820
0178578300
0003540000
ENDCHAR
STARTCHAR Otilde
ENCODING 213
SWIDTH 933 0
DWIDTH 9 0
BBX 9 12 0 -1
BITMAP
0035552200
0275556500
0227BA6000
0277568400
0887978830
5786148870
5970005690
5970005690
5786258860
0787868820
0178578300
0003540000
ENDCHAR
STARTCHAR Odieresis
ENCODING 214
SWIDTH 933 0
DWIDTH 9 0
BBX 9 12 0 -1
BITMAP
0035035000
0036036000
0004551000
0277568400
0887978830
5786148870
5970005690
5970005690
5786258860
0787868820
0178578300
0003540000
ENDCHAR
STARTCHAR multiply
ENCODING 215
SWIDTH 790 0
DWIDTH 8 0
BBX 8 7 0 0
BITMAP
67767775
07888770
03788820
00777700
03887820
07888770
67766775
ENDCHAR
STARTCHAR Oslash
ENCODING 216
SWIDTH 938 0
DWIDTH 9 0
BBX 9 12 0 -2
BITMAP
0000003100
0004557700
0277568600
1887978830
5786147970
5A700056A0
5A70005790
5786257970
0787868820
0378578300
0675540000
0140000000
ENDCHAR
STARTCHAR Ugrave
ENCODING 217
SWIDTH 905 0
DWIDTH 9 0
BBX 9 13 0 -1
BITMAP
0040000000
0487400000
0005610000
0110001100
5880008850
5880008850
5880008850
5880008850
5880008850
5686268650
1886868810
0277577200
0003530000
ENDCHAR
STARTCHAR Uacute
ENCODING 218
SWIDTH 905 0
DWIDTH 9 0
BBX 9 13 0 -1
BITMAP
0000004000
0000478400
0001650000
0110001100
5880008850
5880008850
5880008850
5880008850
5880008850
5686268650
1886868810
0277577200
0003530000
ENDCHAR
STARTCHAR Ucircumflex
ENCODING 219
SWIDTH 905 0
DWIDTH 9 0
BBX 9 12 0 -1
BITMAP
0003830000
0006860000
0114341100
5880008850
5880008850
5880008850
5880008850
5880008850
5686268650
1886868810
0277577200
0003530000
ENDCHAR
STARTCHAR Udieresis
ENCODING 220
SWIDTH 905 0
DWIDTH 9 0
BBX 9 12 0 -1
BITMAP
0044044000
0055055000
0110001100
5880008850
5880008850
5880008850
5880008850
5880008850
5686268650
1886868810
0277577200
0003530000
ENDCHAR
STARTCHAR Yacute
ENCODING 221
SWIDTH 789 0
DWIDTH 8 0
BBX 8 12 0 0
BITMAP
00000130
00016860
00046200
11000110
57801875
28755781
05878750
02877810
00687500
00467300
00468300
00468300
ENDCHAR
STARTCHAR Thorn
ENCODING 222
SWIDTH 798 0
DWIDTH 8 0
BBX 8 10 0 -1
BITMAP
23400000
58956300
58977860
58999884
58901886
58912876
58998783
58955850
58955200
45600000
ENDCHAR
STARTCHAR germandbls
ENCODING 223
SWIDTH 826 0
DWIDTH 8 0
BBX 8 10 0 -1
BITMAP
00455500
08766681
5779A886
58844796
58877866
58855687
58855688
58866876
5889A860
45500000
ENDCHAR
STARTCHAR agrave
ENCODING 224
SWIDTH 832 0
DWIDTH 8 0
BBX 8 12 0 -1
BITMAP
03100000
16861000
00264000
00033000
03778840
27766874
67855797
6A700588
67843688
28866688
03798788
00022000
ENDCHAR
STARTCHAR aacute
ENCODING 225
SWIDTH 832 0
DWIDTH 8 0
BBX 8 12 0 -1
BITMAP
00000130
00016861
00036300
00033000
03778840
27766874
67855797
6A700588
67843688
28866688
03798788
00022000
ENDCHAR
STARTCHAR acircumflex
ENCODING 226
SWIDTH 832 0
DWIDTH 8 0
BBX 8 11 0 -1
BITMAP
00086000
00278300
00200200
03778840
27766874
67855797
6A700588
67843688
28866688
03798788
00022000
ENDCHAR
STARTCHAR atilde
ENCODING 227
SWIDTH 832 0
DWIDTH 8 0
BBX 8 11 0 -1
BITMAP
01555240
07655670
03288620
03778840
27766874
67855797
6A700588
67843688
28866688
03798788
00022000
ENDCHAR
STARTCHAR adieresis
ENCODING 228
SWIDTH 832 0
DWIDTH 8 0
BBX 8 11 0 -1
BITMAP
02222220
03333330
00033000
03778840
27766874
67855797
6A700588
67843688
28866688
03798788
00022000
ENDCHAR
STARTCHAR aring
ENCODING 229
SWIDTH 832 0
DWIDTH 8 0
BBX 8 12 0 -1
BITMAP
00023000
00276300
00176300
00045000
03778840
27766874
67855797
6A700588
67843688
28866688
03798788
00022000
ENDCHAR
STARTCHAR ae
ENCODING 230
SWIDTH 1166 0
DWIDTH 12 0
BBX 12 9 0 -1
BITMAP
000330000000
03778859AAA3
2776687A5551
678557995550
6A7005895550
678436895550
288666896662
03798789AAA3
000220000000
ENDCHAR
STARTCHAR ccedilla
ENCODING 231
SWIDTH 736 0
DWIDTH 7 0
BBX 7 12 0 -4
BITMAP
00155200
04876860
28788740
57843300
5A700000
57843300
28777750
03866860
00177100
00586000
00573000
00364000
ENDCHAR
STARTCHAR egrave
ENCODING 232
SWIDTH 666 0
DWIDTH 7 0
BBX 7 11 0 0
BITMAP
13000000
48630000
01660000
00000000
589AAA30
58955510
58955500
58955500
58955500
58966620
589AAA30
ENDCHAR
STARTCHAR eacute
ENCODING 233
SWIDTH 666 0
DWIDTH 7 0
BBX 7 11 0 0
BITMAP
00000400
00057730
00264000
00000000
589AAA30
58955510
58955500
58955500
58955500
58966620
589AAA30
ENDCHAR
STARTCHAR ecircumflex
ENCODING 234
SWIDTH 666 0
DWIDTH 7 0
BBX 7 10 0 0
BITMAP
00582000
00676000
00422000
589AAA30
58955510
58955500
58955500
58955500
58966620
589AAA30
ENDCHAR
STARTCHAR edieresis
ENCODING 235
SWIDTH 666 0
DWIDTH 7 0
BBX 7 10 0 0
BITMAP
05305300
06306300
00000000
589AAA30
58955510
58955500
58955500
58955500
58966620
589AAA30
ENDCHAR
STARTCHAR igrave
ENCODING 236
SWIDTH 337 0
DWIDTH 3 0
BBX 5 11 -2 0
BITMAP
040000
377500
004620
000000
005890
005890
005890
005890
005890
005890
005890
ENDCHAR
STARTCHAR iacute
ENCODING 237
SWIDTH 337 0
DWIDTH 3 0
BBX 5 11 0 0
BITMAP
000310
036850
056100
000000
589000
589000
589000
589000
589000
589000
589000
ENDCHAR
STARTCHAR icircumflex
ENCODING 238
SWIDTH 337 0
DWIDTH 3 0
BBX 4 10 0 0
BITMAP
1850
5770
2341
5890
5890
5890
5890
5890
5890
5890
ENDCHAR
STARTCHAR idieresis
ENCODING 239
SWIDTH 337 0
DWIDTH 3 0
BBX 5 10 -1 0
BITMAP
250250
360360
000000
058900
058900
058900
058900
058900
058900
058900
ENDCHAR
STARTCHAR eth
ENCODING 240
SWIDTH 783 0
DWIDTH 8 0
BBX 8 10 0 -1
BITMAP
00455100
17756840
02798882
00114855
06997A65
57764A65
69767855
67787872
06867840
00253000
ENDCHAR
STARTCHAR ntilde
ENCODING 241
SWIDTH 787 0
DWIDTH 8 0
BBX 8 10 0 0
BITMAP
02555230
08655670
04265510
78760555
57783555
57887555
57877955
58478865
58347765
58307886
ENDCHAR
STARTCHAR ograve
ENCODING 242
SWIDTH 833 0
DWIDTH 8 0
BBX 8 12 0 -1
BITMAP
02200000
06862000
00265000
00155200
04876850
28789775
57843797
5A700579
57843797
28778774
03866850
00145100
ENDCHAR
STARTCHAR oacute
ENCODING 243
SWIDTH 833 0
DWIDTH 8 0
BBX 8 12 0 -1
BITMAP
00000130
00015861
00036300
00155200
04876850
28789775
57843797
5A700579
57843797
28778774
03866850
00145100
ENDCHAR
STARTCHAR ocircumflex
ENCODING 244
SWIDTH 833 0
DWIDTH 8 0
BBX 8 11 0 -1
BITMAP
00077000
00177400
00113100
04876850
28789775
57843797
5A700579
57843797
28778774
03866850
00145100
ENDCHAR
STARTCHAR otilde
ENCODING 245
SWIDTH 833 0
DWIDTH 8 0
BBX 8 11 0 -1
BITMAP
01555231
06655680
033AB720
04876850
28789775
57843797
5A700579
57843797
28778774
03866850
00145100
ENDCHAR
STARTCHAR odieresis
ENCODING 246
SWIDTH 833 0
DWIDTH 8 0
BBX 8 11 0 -1
BITMAP
02322320
02432430
00155200
04876850
28789775
57843797
5A700579
57843797
28778774
03866850
00145100
ENDCHAR
STARTCHAR divide
ENCODING 247
SWIDTH 260 0
DWIDTH 3 0
BBX 4 7 -1 0
BITMAP
0121
0583
0342
1332
1443
0583
0342
ENDCHAR
STARTCHAR oslash
ENCODING 248
SWIDTH 832 0
DWIDTH 8 0
BBX 8 9 0 -1
BITMAP
00155651
04876880
28888775
57843797
59600579
57843797
28777774
06866850
04645100
ENDCHAR
STARTCHAR ugrave
ENCODING 249
SWIDTH 795 0
DWIDTH 8 0
BBX 8 12 0 -1
BITMAP
03100000
16851000
00363000
00000000
58800975
58800975
58800975
58800975
56844966
27877882
04866840
00154100
ENDCHAR
STARTCHAR uacute
ENCODING 250
SWIDTH 795 0
DWIDTH 8 0
BBX 8 12 0 -1
BITMAP
00000130
00016860
00046200
00000000
58800975
58800975
58800975
58800975
56844966
27877882
04866840
00154100
ENDCHAR
STARTCHAR ucircumflex
ENCODING 251
SWIDTH 795 0
DWIDTH 8 0
BBX 8 11 0 -1
BITMAP
00096000
00369200
00233200
58800975
58800975
58800975
58800975
56844966
27877882
04866840
00154100
ENDCHAR
STARTCHAR udieresis
ENCODING 252
SWIDTH 795 0
DWIDTH 8 0
BBX 8 11 0 -1
BITMAP
02322320
03333330
00000000
58800975
58800975
58800975
58800975
56844966
27877882
04866840
00154100
ENDCHAR
STARTCHAR yacute
ENCODING 253
SWIDTH 733 0
DWIDTH 7 0
BBX 7 11 0 0
BITMAP
00000310
00036850
00056100
00000000
68815780
28768750
05777810
01787500
00769100
00569000
00569000
ENDCHAR
STARTCHAR thorn
ENCODING 254
SWIDTH 833 0
DWIDTH 8 0
BBX 8 11 0 -2
BITMAP
01100000
58900000
58900000
58989861
58967886
58955678
58989887
58967684
58955520
58900000
00100000
ENDCHAR
STARTCHAR ydieresis
ENCODING 255
SWIDTH 733 0
DWIDTH 7 0
BBX 7 10 0 0
BITMAP
02502500
03603600
00000000
68815780
28768750
05777810
01787500
00769100
00569000
00569000
ENDCHAR
STARTCHAR Amacron
ENCODING 256
SWIDTH 936 0
DWIDTH 9 0
BBX 10 9 0 0
BITMAP
0001110000
000A783000
0046986000
0068779100
0197786500
0568379700
0797576830
4869A89760
6891006791
ENDCHAR
STARTCHAR amacron
ENCODING 257
SWIDTH 832 0
DWIDTH 8 0
BBX 8 9 0 -1
BITMAP
00033000
03778840
27766874
67855797
6A700588
67843688
28866688
03798788
00022000
ENDCHAR
STARTCHAR Abreve
ENCODING 258
SWIDTH 936 0
DWIDTH 9 0
BBX 10 10 0 0
BITMAP
0006681000
0001310000
000A783000
0046986000
0068779100
0197786500
0568379700
0797576830
4869A89760
6891006791
ENDCHAR
STARTCHAR abreve
ENCODING 259
SWIDTH 832 0
DWIDTH 8 0
BBX 8 10 0 -1
BITMAP
00377300
00044000
03778840
27766874
67855797
6A700588
67843688
28866688
03798788
00022000
ENDCHAR
STARTCHAR Aogonek
ENCODING 260
SWIDTH 937 0
DWIDTH 9 0
BBX 10 12 0 -3
BITMAP
0001110000
0009774000
0036886000
0067879200
0198686500
0568468800
0797577740
3869A98860
6793406791
0008400000
001A300000
0018400000
ENDCHAR
STARTCHAR aogonek
ENCODING 261
SWIDTH 832 0
DWIDTH 8 0
BBX 8 11 0 -3
BITMAP
00033000
03778840
27766874
67855797
6A700588
67843688
28866688
038D9788
00682000
00581000
00481000
ENDCHAR
STARTCHAR Cacute
ENCODING 262
SWIDTH 852 0
DWIDTH 9 0
BBX 9 13 0 -1
BITMAP
0000003100
0000368500
0000561000
0004551000
0277568400
0887988710
5786146000
5970000000
5970000000
5786256100
0787877710
0178578400
0003540000
ENDCHAR
STARTCHAR cacute
ENCODING 263
SWIDTH 736 0
DWIDTH 7 0
BBX 8 12 0 -1
BITMAP
00000130
00015861
00036300
00155200
04876860
28788740
57843300
5A700000
57843300
28777750
03866860
00145100
ENDCHAR
STARTCHAR Cdotaccent
ENCODING 266
SWIDTH 852 0
DWIDTH 9 0
BBX 9 13 0 -1
BITMAP
0000110000
0002950000
0001530000
0004551000
0277568400
0887988710
5786146000
5970000000
5970000000
5786256100
0787877710
0178578400
0003540000
ENDCHAR
STARTCHAR cdotaccent
ENCODING 267
SWIDTH 736 0
DWIDTH 7 0
BBX 7 12 0 -1
BITMAP
00011000
00079000
00045000
00155200
04876860
28788740
57843300
5A700000
57843300
28777750
03866860
00145100
ENDCHAR
STARTCHAR Ccaron
ENCODING 268
SWIDTH 852 0
DWIDTH 9 0
BBX 9 12 0 -1
BITMAP
0005681000
0004760000
0004A71000
0277568400
0887988710
5786146000
5970000000
5970000000
5786256100
0787877710
0178578400
0003540000
ENDCHAR
STARTCHAR ccaron
ENCODING 269
SWIDTH 736 0
DWIDTH 7 0
BBX 7 11 0 -1
BITMAP
00375500
00079200
00188200
04876860
28788740
57843300
5A700000
57843300
28777750
03866860
00145100
ENDCHAR
STARTCHAR Dcaron
ENCODING 270
SWIDTH 886 0
DWIDTH 9 0
BBX 9 11 0 0
BITMAP
0006760000
0005650000
1113620000
6999997100
5765578700
5895578840
589001A650
5890019650
5895576830
5776688700
69AAA96000
ENDCHAR
STARTCHAR dcaron
ENCODING 271
SWIDTH 1084 0
DWIDTH 11 0
BBX 11 8 0 0
BITMAP
000000003540
69AAA7402650
576568841650
589557871400
589005790000
589557870000
577678840000
69AAA7400000
ENDCHAR
STARTCHAR Dcroat
ENCODING 272
SWIDTH 888 0
DWIDTH 9 0
BBX 10 9 -1 0
BITMAP
0111110000
0699999710
0576557870
0589557884
4389831A65
2689311965
0589557783
0577668870
069AAA9600
ENDCHAR
STARTCHAR dcroat
ENCODING 273
SWIDTH 833 0
DWIDTH 8 0
BBX 8 7 0 0
BITMAP
69AAA740
57656884
58955787
68910579
58955787
57767884
69AAA740
ENDCHAR
STARTCHAR Emacron
ENCODING 274
SWIDTH 706 0
DWIDTH 7 0
BBX 7 9 0 0
BITMAP
01111110
58999960
58955540
58900000
58987000
58976000
58900000
58966640
589AAA60
ENDCHAR
STARTCHAR emacron
ENCODING 275
SWIDTH 666 0
DWIDTH 7 0
BBX 7 7 0 0
BITMAP
589AAA30
58955510
58955500
58955500
58955500
58966620
589AAA30
ENDCHAR
STARTCHAR Ebreve
ENCODING 276
SWIDTH 706 0
DWIDTH 7 0
BBX 7 10 0 0
BITMAP
00768000
01132110
58999960
58955540
58900000
58987000
58976000
58900000
58966640
589AAA60
ENDCHAR
STARTCHAR ebreve
ENCODING 277
SWIDTH 666 0
DWIDTH 7 0
BBX 7 9 0 0
BITMAP
00866000
00120000
589AAA30
58955510
58955500
58955500
58955500
58966620
589AAA30
ENDCHAR
STARTCHAR Edotaccent
ENCODING 278
SWIDTH 706 0
DWIDTH 7 0
BBX 7 11 0 0
BITMAP
00252000
00384000
01232110
58999960
58955540
58900000
58987000
58976000
58900000
58966640
589AAA60
ENDCHAR
STARTCHAR edotaccent
ENCODING 279
SWIDTH 666 0
DWIDTH 7 0
BBX 7 10 0 0
BITMAP
00351000
00482000
00121000
589AAA30
58955510
58955500
58955500
58955500
58966620
589AAA30
ENDCHAR
STARTCHAR Eogonek
ENCODING 280
SWIDTH 706 0
DWIDTH 7 0
BBX 7 12 0 -3
BITMAP
01111110
58999960
58955540
58900000
58987000
58976000
58900000
58966640
589AACA0
00000840
00002930
00001740
ENDCHAR
STARTCHAR eogonek
ENCODING 281
SWIDTH 666 0
DWIDTH 7 0
BBX 7 10 0 -3
BITMAP
589AAA30
58955510
58955500
58955500
58955500
58966620
589AAD40
00004610
00005620
00004530
ENDCHAR
STARTCHAR Ecaron
ENCODING 282
SWIDTH 706 0
DWIDTH 7 0
BBX 7 11 0 0
BITMAP
00677000
00566000
01263110
58999960
58955540
58900000
58987000
58976000
58900000
58966640
589AAA60
ENDCHAR
STARTCHAR ecaron
ENCODING 283
SWIDTH 666 0
DWIDTH 7 0
BBX 7 10 0 0
BITMAP
00875000
00674000
00251000
589AAA30
58955510
58955500
58955500
58955500
58966620
589AAA30
ENDCHAR
STARTCHAR Gbreve
ENCODING 286
SWIDTH 908 0
DWIDTH 9 0
BBX 9 11 0 -1
BITMAP
0006680000
0004751000
0277568400
0887988710
5786146000
5970001210
5870006950
5776238950
1986888950
0278568950
0003541000
ENDCHAR
STARTCHAR gbreve
ENCODING 287
SWIDTH 827 0
DWIDTH 8 0
BBX 8 10 0 -1
BITMAP
00277400
00167200
04876860
28788740
57843300
5A700344
57843888
28778888
03866988
00145100
ENDCHAR
STARTCHAR Gdotaccent
ENCODING 288
SWIDTH 908 0
DWIDTH 9 0
BBX 9 13 0 -1
BITMAP
0000110000
0002950000
0001530000
0004551000
0277568400
0887988710
5786146000
5970001210
5870006950
5776238950
1986888950
0278568950
0003541000
ENDCHAR
STARTCHAR gdotaccent
ENCODING 289
SWIDTH 827 0
DWIDTH 8 0
BBX 8 12 0 -1
BITMAP
00011000
00079000
00045000
00155200
04876860
28788740
57843300
5A700344
57843888
28778888
03866988
00145100
ENDCHAR
STARTCHAR Gcommaaccent
ENCODING 290
SWIDTH 908 0
DWIDTH 9 0
BBX 9 13 0 -4
BITMAP
0004551000
0277568400
0887988710
5786146000
5970001210
5870006950
5776238950
1986888950
0278568950
0004761000
0004750000
0001750000
0002620000
ENDCHAR
STARTCHAR gcommaaccent
ENCODING 291
SWIDTH 827 0
DWIDTH 8 0
BBX 8 9 0 -1
BITMAP
00155200
04876860
28788740
57843300
5A700344
57843888
28778888
03866988
00145100
ENDCHAR
STARTCHAR Hcircumflex
ENCODING 292
SWIDTH 901 0
DWIDTH 9 0
BBX 9 11 0 0
BITMAP
0004830000
0006860000
0114341100
5890009850
5890009850
5890009850
5898889850
5897779850
5890009850
5890009850
5890009850
ENDCHAR
STARTCHAR hcircumflex
ENCODING 293
SWIDTH 830 0
DWIDTH 8 0
BBX 8 10 0 0
BITMAP
00077000
00177400
00233200
58900598
58900598
58955798
58988898
58933698
58900598
58900598
ENDCHAR
STARTCHAR Hbar
ENCODING 294
SWIDTH 901 0
DWIDTH 9 0
BBX 9 9 0 0
BITMAP
0110001100
5891119850
6891119860
5890009850
5898889850
5897779850
5890009850
5890009850
5890009850
ENDCHAR
STARTCHAR hbar
ENCODING 295
SWIDTH 830 0
DWIDTH 8 0
BBX 10 7 -1 0
BITMAP
1489444872
1789446872
0589557870
0589888870
0589336870
0589005870
0589005870
ENDCHAR
STARTCHAR Itilde
ENCODING 296
SWIDTH 338 0
DWIDTH 3 0
BBX 7 11 -2 0
BITMAP
03555220
27555650
22366500
00589000
00589000
00589000
00589000
00589000
00589000
00589000
00589000
ENDCHAR
STARTCHAR itilde
ENCODING 297
SWIDTH 337 0
DWIDTH 3 0
BBX 7 10 -2 0
BITMAP
03555220
27555650
22366500
00589000
00589000
00589000
00589000
00589000
00589000
00589000
ENDCHAR
STARTCHAR Imacron
ENCODING 298
SWIDTH 338 0
DWIDTH 3 0
BBX 3 9 0 0
BITMAP
0110
5890
5890
5890
5890
5890
5890
5890
5890
ENDCHAR
STARTCHAR imacron
ENCODING 299
SWIDTH 337 0
DWIDTH 3 0
BBX 3 7 0 0
BITMAP
5890
5890
5890
5890
5890
5890
5890
ENDCHAR
STARTCHAR Ibreve
ENCODING 300
SWIDTH 338 0
DWIDTH 3 0
BBX 4 10 0 0
BITMAP
6681
0310
5890
5890
5890
5890
5890
5890
5890
5890
ENDCHAR
STARTCHAR ibreve
ENCODING 301
SWIDTH 337 0
DWIDTH 3 0
BBX 4 9 0 0
BITMAP
6681
0210
5890
5890
5890
5890
5890
5890
5890
ENDCHAR
STARTCHAR Iogonek
ENCODING 302
SWIDTH 338 0
DWIDTH 3 0
BBX 3 12 0 -3
BITMAP
0110
5890
5890
5890
5890
5890
5890
5890
58D0
0660
0760
0670
ENDCHAR
STARTCHAR iogonek
ENCODING 303
SWIDTH 337 0
DWIDTH 3 0
BBX 3 10 0 -3
BITMAP
5890
5890
5890
5890
5890
5890
58D0
0660
0760
0670
ENDCHAR
STARTCHAR Idotaccent
ENCODING 304
SWIDTH 338 0
DWIDTH 3 0
BBX 3 12 0 0
BITMAP
0110
2950
1530
0110
5890
5890
5890
5890
5890
5890
5890
5890
ENDCHAR
STARTCHAR dotlessi
ENCODING 305
SWIDTH 337 0
DWIDTH 3 0
BBX 3 7 0 0
BITMAP
5890
5890
5890
5890
5890
5890
5890
ENDCHAR
STARTCHAR IJ
ENCODING 306
SWIDTH 774 0
DWIDTH 8 0
BBX 8 10 0 -1
BITMAP
01100110
58903864
58903864
58903864
58903864
58903864
58915783
58938781
58926840
00024100
ENDCHAR
STARTCHAR ij
ENCODING 307
SWIDTH 729 0
DWIDTH 7 0
BBX 7 8 0 -1
BITMAP
58905880
58905880
58905880
58905880
58905880
58927970
58928740
00048500
ENDCHAR
STARTCHAR Jcircumflex
ENCODING 308
SWIDTH 434 0
DWIDTH 4 0
BBX 5 12 0 -1
BITMAP
018500
057700
022310
058800
058800
058800
058800
058800
179800
777600
487100
430000
ENDCHAR
STARTCHAR jcircumflex
ENCODING 309
SWIDTH 393 0
DWIDTH 4 0
BBX 4 11 0 -1
BITMAP
0681
0775
1422
0975
0975
0975
0975
0975
5866
5881
7720
ENDCHAR
STARTCHAR Kcommaaccent
ENCODING 310
SWIDTH 815 0
DWIDTH 8 0
BBX 8 13 0 -4
BITMAP
01100111
58902876
58906782
58928760
58967820
58967820
58928760
58906783
58902886
00023000
00059100
00039100
00055000
ENDCHAR
STARTCHAR kcommaaccent
ENCODING 311
SWIDTH 801 0
DWIDTH 8 0
BBX 8 11 0 -4
BITMAP
58903876
58907881
58947750
58968910
58947750
58907881
58903876
00023000
0006A000
00049000
00055000
ENDCHAR
STARTCHAR kgreenlandic
ENCODING 312
SWIDTH 801 0
DWIDTH 8 0
BBX 8 7 0 0
BITMAP
58903876
58907881
58947750
58968910
58947750
58907881
58903876
ENDCHAR
STARTCHAR Lacute
ENCODING 313
SWIDTH 604 0
DWIDTH 6 0
BBX 7 12 0 0
BITMAP
00001300
00158610
00363000
01100000
58900000
58900000
58900000
58900000
58900000
58900000
58966500
589AA700
ENDCHAR
STARTCHAR lacute
ENCODING 314
SWIDTH 583 0
DWIDTH 6 0
BBX 6 11 0 0
BITMAP
000310
036850
056100
000000
589000
589000
589000
589000
589000
589663
589AA5
ENDCHAR
STARTCHAR Lcommaaccent
ENCODING 315
SWIDTH 604 0
DWIDTH 6 0
BBX 6 13 0 -4
BITMAP
011000
589000
589000
589000
589000
589000
589000
589665
589AA7
002300
006900
005800
005500
ENDCHAR
STARTCHAR lcommaaccent
ENCODING 316
SWIDTH 583 0
DWIDTH 6 0
BBX 6 11 0 -4
BITMAP
589000
589000
589000
589000
589000
589663
589AA5
002200
008800
006700
006400
ENDCHAR
STARTCHAR Lcaron
ENCODING 317
SWIDTH 856 0
DWIDTH 9 0
BBX 9 9 0 0
BITMAP
0110004530
5890003730
5890003720
5890003300
5890000000
5890000000
5890000000
5896650000
589AA70000
ENDCHAR
STARTCHAR lcaron
ENCODING 318
SWIDTH 584 0
DWIDTH 6 0
BBX 6 8 0 0
BITMAP
000444
589355
589264
589240
589000
589000
589663
589AA5
ENDCHAR
STARTCHAR Ldot
ENCODING 319
SWIDTH 604 0
DWIDTH 6 0
BBX 6 9 0 0
BITMAP
011000
589000
589000
589000
589351
589482
589120
589665
589AA7
ENDCHAR
STARTCHAR ldot
ENCODING 320
SWIDTH 582 0
DWIDTH 6 0
BBX 6 7 0 0
BITMAP
589000
589251
589482
589120
589000
589663
589AA5
ENDCHAR
STARTCHAR Lslash
ENCODING 321
SWIDTH 604 0
DWIDTH 6 0
BBX 7 9 -1 0
BITMAP
00110000
05890000
05891200
05897400
44894300
16890000
15890000
05896650
0589AA70
ENDCHAR
STARTCHAR lslash
ENCODING 322
SWIDTH 581 0
DWIDTH 6 0
BBX 7 7 -1 0
BITMAP
05890000
05894400
14893000
64893000
47890000
05896630
0589AA50
ENDCHAR
STARTCHAR Nacute
ENCODING 323
SWIDTH 877 0
DWIDTH 9 0
BBX 9 12 0 0
BITMAP
0000004000
0000577300
0002650000
1110001100
7877028650
5778428650
5788838650
5887778650
5887788650
5892887650
5890677650
5890078850
ENDCHAR
STARTCHAR nacute
ENCODING 324
SWIDTH 787 0
DWIDTH 8 0
BBX 8 11 0 0
BITMAP
00000130
00026860
00046200
00000000
78760555
57783555
57887555
57877955
58478865
58347765
58307886
ENDCHAR
STARTCHAR Ncommaaccent
ENCODING 325
SWIDTH 877 0
DWIDTH 9 0
BBX 9 13 0 -4
BITMAP
1110001100
7877028650
5778428650
5788838650
5887778650
5887788650
5892887650
5890677650
5890078850
0002210000
0005740000
0002730000
0004600000
ENDCHAR
STARTCHAR ncommaaccent
ENCODING 326
SWIDTH 787 0
DWIDTH 8 0
BBX 8 11 0 -4
BITMAP
78760555
57783555
57887555
57877955
58478865
58347765
58307886
00032000
00097000
00076000
00064000
ENDCHAR
STARTCHAR Ncaron
ENCODING 327
SWIDTH 877 0
DWIDTH 9 0
BBX 9 11 0 0
BITMAP
0007760000
0006750000
1113411100
7877028650
5778428650
5788838650
5887778650
5887788650
5892887650
5890677650
5890078850
ENDCHAR
STARTCHAR ncaron
ENCODING 328
SWIDTH 787 0
DWIDTH 8 0
BBX 8 10 0 0
BITMAP
00557400
00188000
00043000
78760555
57783555
57887555
57877955
58478865
58347765
58307886
ENDCHAR
STARTCHAR Eng
ENCODING 330
SWIDTH 874 0
DWIDTH 9 0
BBX 9 13 0 -4
BITMAP
1110001100
7877038740
5777538740
5688848740
5878778740
5886788740
5891878740
5890568740
5890068740
0000277830
0000268700
00003A7200
0000110000
ENDCHAR
STARTCHAR eng
ENCODING 331
SWIDTH 691 0
DWIDTH 7 0
BBX 7 10 0 -3
BITMAP
78765650
57788650
57888650
57879650
58489650
58348650
58308650
00006660
00018820
00016200
ENDCHAR
STARTCHAR Omacron
ENCODING 332
SWIDTH 933 0
DWIDTH 9 0
BBX 9 10 0 -1
BITMAP
0004551000
0277568400
0887978830
5786148870
5970005690
5970005690
5786258860
0787868820
0178578300
0003540000
ENDCHAR
STARTCHAR omacron
ENCODING 333
SWIDTH 833 0
DWIDTH 8 0
BBX 8 9 0 -1
BITMAP
00155200
04876850
28789775
57843797
5A700579
57843797
28778774
03866850
00145100
ENDCHAR
STARTCHAR Obreve
ENCODING 334
SWIDTH 933 0
DWIDTH 9 0
BBX 9 11 0 -1
BITMAP
0006680000
0004751000
0277568400
0887978830
5786148870
5970005690
5970005690
5786258860
0787868820
0178578300
0003540000
ENDCHAR
STARTCHAR obreve
ENCODING 335
SWIDTH 833 0
DWIDTH 8 0
BBX 8 10 0 -1
BITMAP
00277400
00167200
04876850
28789775
57843797
5A700579
57843797
28778774
03866850
00145100
ENDCHAR
STARTCHAR Ohungarumlaut
ENCODING 336
SWIDTH 933 0
DWIDTH 9 0
BBX 10 13 0 -1
BITMAP
0000220040
0026864784
0056216500
0004551000
0277568400
0887978830
5786148870
5970005690
5970005690
5786258860
0787868820
0178578300
0003540000
ENDCHAR
STARTCHAR ohungarumlaut
ENCODING 337
SWIDTH 833 0
DWIDTH 8 0
BBX 10 12 0 -1
BITMAP
0000400130
0057746861
0264046200
0015520000
0487685000
2878977500
5784379700
5A70057900
5784379700
2877877400
0386685000
0014510000
ENDCHAR
STARTCHAR OE
ENCODING 338
SWIDTH 1317 0
DWIDTH 13 0
BBX 13 10 0 -1
BITMAP
00045510111110
02775686AA9970
18879776A65540
57861477A10000
5A700055A98000
5A700055A87000
57862577A10000
07878686A76650
01785786AAAA80
00035300000000
ENDCHAR
STARTCHAR oe
ENCODING 339
SWIDTH 1174 0
DWIDTH 12 0
BBX 12 9 0 -1
BITMAP
001552000000
0487696AAAA3
280423695552
541434795551
514005695551
541434795551
281433696662
0386686AAAA4
001451000000
ENDCHAR
STARTCHAR Racute
ENCODING 340
SWIDTH 843 0
DWIDTH 8 0
BBX 9 12 0 0
BITMAP
0000220000
0026860000
0056200000
1111110000
69999A7200
5765568700
5895576910
5895677910
5899A98700
589578A000
5890579200
5890197500
ENDCHAR
STARTCHAR Rcommaaccent
ENCODING 342
SWIDTH 843 0
DWIDTH 8 0
BBX 9 13 0 -4
BITMAP
1111110000
69999A7200
5765568700
5895576910
5895677910
5899A98700
589578A000
5890579200
5890197500
0002300000
0007900000
0005800000
0006500000
ENDCHAR
STARTCHAR rcommaaccent
ENCODING 343
SWIDTH 831 0
DWIDTH 8 0
BBX 8 11 0 -4
BITMAP
69AAA961
57655786
58966779
58989887
58955594
58959B70
58905792
00032000
000A6000
00076000
00074000
ENDCHAR
STARTCHAR Rcaron
ENCODING 344
SWIDTH 843 0
DWIDTH 8 0
BBX 9 11 0 0
BITMAP
0558200000
0287000000
1164110000
69999A7200
5765568700
5895576910
5895677910
5899A98700
589578A000
5890579200
5890197500
ENDCHAR
STARTCHAR rcaron
ENCODING 345
SWIDTH 831 0
DWIDTH 8 0
BBX 8 10 0 0
BITMAP
00285500
00068300
00044000
69AAA961
57655786
58966779
58989887
58955594
58959B70
58905792
ENDCHAR
STARTCHAR Sacute
ENCODING 346
SWIDTH 682 0
DWIDTH 7 0
BBX 7 13 0 -1
BITMAP
00000400
00047730
00165000
00455100
18756830
678A8400
59853000
57778600
06987740
00459650
15787740
49768700
01452000
ENDCHAR
STARTCHAR sacute
ENCODING 347
SWIDTH 683 0
DWIDTH 7 0
BBX 7 12 0 -1
BITMAP
00000400
00047730
00165000
00131000
1798A730
68656600
68654000
38756810
01457650
17657750
47A99600
00120000
ENDCHAR
STARTCHAR Scircumflex
ENCODING 348
SWIDTH 682 0
DWIDTH 7 0
BBX 7 12 0 -1
BITMAP
00482000
00676000
00022100
18756830
678A8400
59853000
57778600
06987740
00459650
15787740
49768700
01452000
ENDCHAR
STARTCHAR scircumflex
ENCODING 349
SWIDTH 683 0
DWIDTH 7 0
BBX 7 11 0 -1
BITMAP
00482000
00676000
00302000
1798A730
68656600
68654000
38756810
01457650
17657750
47A99600
00120000
ENDCHAR
STARTCHAR Scedilla
ENCODING 350
SWIDTH 682 0
DWIDTH 7 0
BBX 7 13 0 -4
BITMAP
00455100
18756830
678A8400
59853000
57778600
06987740
00459650
15787740
49768700
01692000
03880000
05740000
01650000
ENDCHAR
STARTCHAR scedilla
ENCODING 351
SWIDTH 683 0
DWIDTH 7 0
BBX 7 12 0 -4
BITMAP
00131000
1798A730
68656600
68654000
38756810
01457650
17657750
47A99600
00360000
02880000
05740000
01650000
ENDCHAR
STARTCHAR Scaron
ENCODING 352
SWIDTH 682 0
DWIDTH 7 0
BBX 7 12 0 -1
BITMAP
00776000
00565000
006A6100
18756830
678A8400
59853000
57778600
06987740
00459650
15787740
49768700
01452000
ENDCHAR
STARTCHAR scaron
ENCODING 353
SWIDTH 683 0
DWIDTH 7 0
BBX 7 11 0 -1
BITMAP
00776000
00565000
00372000
1798A730
68656600
68654000
38756810
01457650
17657750
47A99600
00120000
ENDCHAR
STARTCHAR Tcommaaccent
ENCODING 354
SWIDTH 591 0
DWIDTH 6 0
BBX 6 12 0 -3
BITMAP
111111
799995
477863
046830
046830
046830
046830
046830
049B30
068500
067200
046300
ENDCHAR
STARTCHAR tcommaaccent
ENCODING 355
SWIDTH 588 0
DWIDTH 6 0
BBX 6 10 0 -3
BITMAP
7AAAA5
466663
046820
046820
046820
046820
049A20
068500
067200
046300
ENDCHAR
STARTCHAR Tcaron
ENCODING 356
SWIDTH 591 0
DWIDTH 6 0
BBX 6 11 0 0
BITMAP
055740
018800
116411
799995
477863
046830
046830
046830
046830
046830
046830
ENDCHAR
STARTCHAR tcaron
ENCODING 357
SWIDTH 842 0
DWIDTH 8 0
BBX 9 8 0 0
BITMAP
0000004710
7AAAA53910
4666634800
0468204200
0468200000
0468200000
0468200000
0468200000
ENDCHAR
STARTCHAR Tbar
ENCODING 358
SWIDTH 591 0
DWIDTH 6 0
BBX 6 9 0 0
BITMAP
111111
799995
477863
046830
606835
366852
046830
046830
046830
ENDCHAR
STARTCHAR tbar
ENCODING 359
SWIDTH 588 0
DWIDTH 6 0
BBX 6 7 0 0
BITMAP
7AAAA5
466663
046820
426813
136811
166841
046820
ENDCHAR
STARTCHAR Utilde
ENCODING 360
SWIDTH 905 0
DWIDTH 9 0
BBX 9 12 0 -1
BITMAP
0045542200
0465556400
0334555100
5880008850
5880008850
5880008850
5880008850
5880008850
5686268650
1886868810
0277577200
0003530000
ENDCHAR
STARTCHAR utilde
ENCODING 361
SWIDTH 795 0
DWIDTH 8 0
BBX 8 11 0 -1
BITMAP
02555230
08655670
04255520
58800975
58800975
58800975
58800975
56844966
27877882
04866840
00154100
ENDCHAR
STARTCHAR Umacron
ENCODING 362
SWIDTH 905 0
DWIDTH 9 0
BBX 9 10 0 -1
BITMAP
0110001100
5880008850
5880008850
5880008850
5880008850
5880008850
5686268650
1886868810
0277577200
0003530000
ENDCHAR
STARTCHAR umacron
ENCODING 363
SWIDTH 795 0
DWIDTH 8 0
BBX 8 8 0 -1
BITMAP
58800975
58800975
58800975
58800975
56844966
27877882
04866840
00154100
ENDCHAR
STARTCHAR Ubreve
ENCODING 364
SWIDTH 905 0
DWIDTH 9 0
BBX 9 11 0 -1
BITMAP
0007670000
0110201100
5880008850
5880008850
5880008850
5880008850
5880008850
5686268650
1886868810
0277577200
0003530000
ENDCHAR
STARTCHAR ubreve
ENCODING 365
SWIDTH 795 0
DWIDTH 8 0
BBX 8 10 0 -1
BITMAP
00377300
00011000
58800975
58800975
58800975
58800975
56844966
27877882
04866840
00154100
ENDCHAR
STARTCHAR Uring
ENCODING 366
SWIDTH 905 0
DWIDTH 9 0
BBX 9 13 0 -1
BITMAP
0001410000
0006570000
0006660000
0110301100
5880008850
5880008850
5880008850
5880008850
5880008850
5686268650
1886868810
0277577200
0003530000
ENDCHAR
STARTCHAR uring
ENCODING 367
SWIDTH 795 0
DWIDTH 8 0
BBX 8 12 0 -1
BITMAP
00033000
00366200
00367200
00022000
58800975
58800975
58800975
58800975
56844966
27877882
04866840
00154100
ENDCHAR
STARTCHAR Uhungarumlaut
ENCODING 368
SWIDTH 905 0
DWIDTH 9 0
BBX 10 13 0 -1
BITMAP
0000310040
0036855773
0056126400
0110001100
5880008850
5880008850
5880008850
5880008850
5880008850
5686268650
1886868810
0277577200
0003530000
ENDCHAR
STARTCHAR uhungarumlaut
ENCODING 369
SWIDTH 795 0
DWIDTH 8 0
BBX 9 12 0 -1
BITMAP
0001300220
0158646850
0363056100
0000000000
5880097500
5880097500
5880097500
5880097500
5684496600
2787788200
0486684000
0015410000
ENDCHAR
STARTCHAR Uogonek
ENCODING 370
SWIDTH 905 0
DWIDTH 9 0
BBX 9 12 0 -3
BITMAP
0110001100
5880008850
5880008850
5880008850
5880008850
5880008850
5686268650
1886868810
0278977200
000AA30000
0009500000
0007500000
ENDCHAR
STARTCHAR uogonek
ENCODING 371
SWIDTH 794 0
DWIDTH 8 0
BBX 8 10 0 -3
BITMAP
58800975
58800975
58800975
58800975
56844966
27877882
048A7840
006B5100
00572000
00462000
ENDCHAR
STARTCHAR Ycircumflex
ENCODING 374
SWIDTH 789 0
DWIDTH 8 0
BBX 8 11 0 0
BITMAP
00095000
00369100
11233210
57801875
28755781
05878750
02877810
00687500
00467300
00468300
00468300
ENDCHAR
STARTCHAR ycircumflex
ENCODING 375
SWIDTH 733 0
DWIDTH 7 0
BBX 7 10 0 0
BITMAP
00185000
00577000
00334000
68815780
28768750
05777810
01787500
00769100
00569000
00569000
ENDCHAR
STARTCHAR Ydieresis
ENCODING 376
SWIDTH 789 0
DWIDTH 8 0
BBX 8 11 0 0
BITMAP
02322320
03333330
11000110
57801875
28755781
05878750
02877810
00687500
00467300
00468300
00468300
ENDCHAR
STARTCHAR Zacute
ENCODING 377
SWIDTH 854 0
DWIDTH 9 0
BBX 9 12 0 0
BITMAP
0000004000
0000577200
0002640000
1111111100
6999997A10
3555558710
3556788810
0048777300
1688861000
5778655510
5865666610
699AAAAA10
ENDCHAR
STARTCHAR zacute
ENCODING 378
SWIDTH 714 0
DWIDTH 7 0
BBX 7 11 0 0
BITMAP
00000310
00036840
00065100
00000000
6AA88860
36677830
00577600
01888100
06775000
38876650
5888AA80
ENDCHAR
STARTCHAR Zdotaccent
ENCODING 379
SWIDTH 854 0
DWIDTH 9 0
BBX 9 12 0 0
BITMAP
0001100000
0006910000
0003510000
1111111100
6999997A10
3555558710
3556788810
0048777300
1688861000
5778655510
5865666610
699AAAAA10
ENDCHAR
STARTCHAR zdotaccent
ENCODING 380
SWIDTH 714 0
DWIDTH 7 0
BBX 7 11 0 0
BITMAP
00011000
00295000
00153000
00000000
6AA88860
36677830
00577600
01888100
06775000
38876650
5888AA80
ENDCHAR
STARTCHAR Zcaron
ENCODING 381
SWIDTH 854 0
DWIDTH 9 0
BBX 9 11 0 0
BITMAP
0018650000
0006830000
1114511100
6999997A10
3555558710
3556788810
0048777300
1688861000
5778655510
5865666610
699AAAAA10
ENDCHAR
STARTCHAR zcaron
ENCODING 382
SWIDTH 714 0
DWIDTH 7 0
BBX 7 10 0 0
BITMAP
00577000
00576000
00152000
6AA88860
36677830
00577600
01888100
06775000
38876650
5888AA80
ENDCHAR
STARTCHAR florin
ENCODING 402
SWIDTH 388 0
DWIDTH 4 0
BBX 4 10 0 -1
BITMAP
0043
0673
0972
3973
4974
1971
0970
1970
6860
3500
ENDCHAR
STARTCHAR uni01C4
ENCODING 452
SWIDTH 1740 0
DWIDTH 17 0
BBX 17 11 0 0
BITMAP
000000000003755000
000000000000792000
111110000111551110
6999997107999997A0
576557870455555880
589557884455677880
589001A65005887720
589001965177885000
589557683687755550
577668870686566660
69AAA9600889AAAAA0
ENDCHAR
STARTCHAR uni01C5
ENCODING 453
SWIDTH 1601 0
DWIDTH 16 0
BBX 16 10 0 0
BITMAP
0000000000067600
1111100000056500
6999997100025100
5765578707AA8875
5895578844667782
589001A650067750
5890019650288700
5895576830778400
5776688705777664
69AAA96006888AA6
ENDCHAR
STARTCHAR Scommaaccent
ENCODING 536
SWIDTH 682 0
DWIDTH 7 0
BBX 7 13 0 -4
BITMAP
00455100
18756830
678A8400
59853000
57778600
06987740
00459650
15787740
49768700
01673000
00573000
00283000
00460000
ENDCHAR
STARTCHAR scommaaccent
ENCODING 537
SWIDTH 683 0
DWIDTH 7 0
BBX 7 12 0 -4
BITMAP
00131000
1798A730
68656600
68654000
38756810
01457650
17657750
47A99600
00341000
00573000
00283000
00460000
ENDCHAR
STARTCHAR uni021A
ENCODING 538
SWIDTH 591 0
DWIDTH 6 0
BBX 6 13 0 -4
BITMAP
111111
799995
477863
046830
046830
046830
046830
046830
046830
003200
009700
007600
006400
ENDCHAR
STARTCHAR uni021B
ENCODING 539
SWIDTH 588 0
DWIDTH 6 0
BBX 6 11 0 -4
BITMAP
7AAAA5
466663
046820
046820
046820
046820
046820
003200
009700
007600
006400
ENDCHAR
STARTCHAR uni0237
ENCODING 567
SWIDTH 393 0
DWIDTH 4 0
BBX 4 8 0 -1
BITMAP
0975
0975
0975
0975
0975
5866
5881
7720
ENDCHAR
STARTCHAR circumflex
ENCODING 710
SWIDTH 376 0
DWIDTH 4 0
BBX 4 3 0 7
BITMAP
0950
4691
3332
ENDCHAR
STARTCHAR caron
ENCODING 711
SWIDTH 362 0
DWIDTH 4 0
BBX 4 3 0 7
BITMAP
5582
2870
0430
ENDCHAR
STARTCHAR breve
ENCODING 728
SWIDTH 360 0
DWIDTH 4 0
BBX 4 2 0 7
BITMAP
5782
0210
ENDCHAR
STARTCHAR dotaccent
ENCODING 729
SWIDTH 255 0
DWIDTH 3 0
BBX 3 3 0 6
BITMAP
1100
6910
3510
ENDCHAR
STARTCHAR ring
ENCODING 730
SWIDTH 330 0
DWIDTH 3 0
BBX 3 4 0 7
BITMAP
0410
5580
5670
0310
ENDCHAR
STARTCHAR ogonek
ENCODING 731
SWIDTH 250 0
DWIDTH 3 0
BBX 3 4 0 -3
BITMAP
0410
5610
5710
4710
ENDCHAR
STARTCHAR tilde
ENCODING 732
SWIDTH 665 0
DWIDTH 7 0
BBX 7 3 0 5
BITMAP
05553220
56555730
22555300
ENDCHAR
STARTCHAR hungarumlaut
ENCODING 733
SWIDTH 837 0
DWIDTH 8 0
BBX 8 3 0 7
BITMAP
00040022
15864686
26305620
ENDCHAR
STARTCHAR uni0307
ENCODING 775
SWIDTH 260 0
DWIDTH 3 0
BBX 3 3 0 3
BITMAP
3510
5810
1200
ENDCHAR
STARTCHAR uni030F
ENCODING 783
SWIDTH 554 0
DWIDTH 6 0
BBX 6 4 0 7
BITMAP
442700
380750
074560
043151
ENDCHAR
STARTCHAR uni0311
ENCODING 785
SWIDTH 375 0
DWIDTH 4 0
BBX 4 2 0 7
BITMAP
3872
1111
ENDCHAR
STARTCHAR uni0326
ENCODING 806
SWIDTH 274 0
DWIDTH 3 0
BBX 3 4 0 -4
BITMAP
2210
5740
2730
4600
ENDCHAR
STARTCHAR Omega
ENCODING 937
SWIDTH 92 0
DWIDTH 1 0
BBX 1 1 0 0
BITMAP
00
ENDCHAR
STARTCHAR uni00B5.dup2
ENCODING 956
SWIDTH 802 0
DWIDTH 8 0
BBX 8 9 0 -2
BITMAP
57900895
57900895
57900895
57900895
57924876
57977882
57956840
57945100
00100000
ENDCHAR
STARTCHAR pi
ENCODING 960
SWIDTH 92 0
DWIDTH 1 0
BBX 1 1 0 0
BITMAP
00
ENDCHAR
STARTCHAR endash
ENCODING 8211
SWIDTH 473 0
DWIDTH 5 0
BBX 5 2 0 3
BITMAP
588830
477720
ENDCHAR
STARTCHAR emdash
ENCODING 8212
SWIDTH 615 0
DWIDTH 6 0
BBX 6 2 0 3
BITMAP
588886
477775
ENDCHAR
STARTCHAR quoteleft
ENCODING 8216
SWIDTH 254 0
DWIDTH 3 0
BBX 3 4 0 4
BITMAP
4810
5710
5920
0100
ENDCHAR
STARTCHAR quoteright
ENCODING 8217
SWIDTH 251 0
DWIDTH 3 0
BBX 3 4 0 5
BITMAP
0100
5820
2820
6700
ENDCHAR
STARTCHAR quotesinglbase
ENCODING 8218
SWIDTH 252 0
DWIDTH 3 0
BBX 3 4 0 -2
BITMAP
4620
3820
3810
3200
ENDCHAR
STARTCHAR quotedblleft
ENCODING 8220
SWIDTH 535 0
DWIDTH 5 0
BBX 5 5 0 4
BITMAP
000010
481580
571760
592790
010110
ENDCHAR
STARTCHAR quotedblright
ENCODING 8221
SWIDTH 532 0
DWIDTH 5 0
BBX 5 5 0 4
BITMAP
010110
582690
282490
670760
000100
ENDCHAR
STARTCHAR quotedblbase
ENCODING 8222
SWIDTH 533 0
DWIDTH 5 0
BBX 5 4 0 -2
BITMAP
462570
382590
381570
320410
ENDCHAR
STARTCHAR dagger
ENCODING 8224
SWIDTH 636 0
DWIDTH 6 0
BBX 6 9 0 0
BITMAP
001100
00A650
45A685
46A696
35A685
00A650
00A650
00A650
00A650
ENDCHAR
STARTCHAR daggerdbl
ENCODING 8225
SWIDTH 648 0
DWIDTH 6 0
BBX 7 9 0 0
BITMAP
00110000
00875000
35978510
58979810
23977300
24977410
47978710
35978510
00875000
ENDCHAR
STARTCHAR bullet
ENCODING 8226
SWIDTH 501 0
DWIDTH 5 0
BBX 5 5 0 1
BITMAP
055500
575750
550550
475750
055500
ENDCHAR
STARTCHAR ellipsis
ENCODING 8230
SWIDTH 676 0
DWIDTH 7 0
BBX 7 2 0 0
BITMAP
46464620
6A6A6A40
ENDCHAR
STARTCHAR perthousand
ENCODING 8240
SWIDTH 447 0
DWIDTH 4 0
BBX 5 10 0 -1
BITMAP
000100
006920
009800
038500
056500
069200
098000
385000
565000
582000
ENDCHAR
STARTCHAR guilsinglleft
ENCODING 8249
SWIDTH 465 0
DWIDTH 5 0
BBX 5 5 0 1
BITMAP
015720
496920
577600
469620
002610
ENDCHAR
STARTCHAR guilsinglright
ENCODING 8250
SWIDTH 465 0
DWIDTH 5 0
BBX 5 5 0 1
BITMAP
564000
487820
276820
568610
351000
ENDCHAR
STARTCHAR fraction
ENCODING 8260
SWIDTH 447 0
DWIDTH 4 0
BBX 5 10 0 -1
BITMAP
000100
006920
009800
038500
056500
069200
098000
385000
565000
582000
ENDCHAR
STARTCHAR uni2074
ENCODING 8308
SWIDTH 528 0
DWIDTH 5 0
BBX 5 8 0 1
BITMAP
001100
048600
078300
387330
688870
455550
455880
000220
ENDCHAR
STARTCHAR Euro
ENCODING 8364
SWIDTH 781 0
DWIDTH 8 0
BBX 8 10 0 -1
BITMAP
00015551
00486564
03777A80
06874120
39675500
39675500
06885230
02876860
00387674
00004540
ENDCHAR
STARTCHAR trademark
ENCODING 8482
SWIDTH 1503 0
DWIDTH 15 0
BBX 15 7 0 2
BITMAP
1111111100001110
6999969760006880
4588535882048750
0097005976078850
0097005878678850
0097005958675850
0086005916772750
ENDCHAR
STARTCHAR partialdiff
ENCODING 8706
SWIDTH 108 0
DWIDTH 1 0
BBX 1 1 0 0
BITMAP
00
ENDCHAR
STARTCHAR uni2206
ENCODING 8710
SWIDTH 108 0
DWIDTH 1 0
BBX 1 1 0 0
BITMAP
00
ENDCHAR
STARTCHAR product
ENCODING 8719
SWIDTH 521 0
DWIDTH 5 0
BBX 5 7 0 0
BITMAP
069700
087820
478760
674970
478760
088620
067900
ENDCHAR
STARTCHAR summation
ENCODING 8721
SWIDTH 108 0
DWIDTH 1 0
BBX 1 1 0 0
BITMAP
00
ENDCHAR
STARTCHAR minus
ENCODING 8722
SWIDTH 555 0
DWIDTH 6 0
BBX 6 3 0 3
BITMAP
244441
477771
355551
ENDCHAR
STARTCHAR radical
ENCODING 8730
SWIDTH 108 0
DWIDTH 1 0
BBX 1 1 0 0
BITMAP
00
ENDCHAR
STARTCHAR infinity
ENCODING 8734
SWIDTH 108 0
DWIDTH 1 0
BBX 1 1 0 0
BITMAP
00
ENDCHAR
STARTCHAR integral
ENCODING 8747
SWIDTH 362 0
DWIDTH 4 0
BBX 4 10 0 -1
BITMAP
0052
0762
1A62
1A50
1A50
1A50
1A50
2950
8750
4500
ENDCHAR
STARTCHAR approxequal
ENCODING 8776
SWIDTH 665 0
DWIDTH 7 0
BBX 7 6 0 2
BITMAP
05553220
56555730
22555300
05553220
56555730
22555300
ENDCHAR
STARTCHAR notequal
ENCODING 8800
SWIDTH 473 0
DWIDTH 5 0
BBX 5 10 0 -1
BITMAP
000100
006920
009800
5DFF30
4CDC20
18B410
5FF830
6DB520
565000
582000
ENDCHAR
STARTCHAR lessequal
ENCODING 8804
SWIDTH 108 0
DWIDTH 1 0
BBX 1 1 0 0
BITMAP
00
ENDCHAR
STARTCHAR greaterequal
ENCODING 8805
SWIDTH 108 0
DWIDTH 1 0
BBX 1 1 0 0
BITMAP
00
ENDCHAR
STARTCHAR lozenge
ENCODING 9674
SWIDTH 521 0
DWIDTH 5 0
BBX 5 7 0 0
BITMAP
069700
087820
478760
674970
478760
088620
067900
ENDCHAR
STARTCHAR uniF8FF
ENCODING 63743
SWIDTH 108 0
DWIDTH 1 0
BBX 1 1 0 0
BITMAP
00
ENDCHAR
STARTCHAR uniFB01
ENCODING 64257
SWIDTH 962 0
DWIDTH 10 0
BBX 10 7 0 0
BITMAP
589AA94683
5895554683
5893324683
5898854683
5895544683
5890004683
5890004683
ENDCHAR
STARTCHAR uniFB02
ENCODING 64258
SWIDTH 1208 0
DWIDTH 12 0
BBX 12 7 0 0
BITMAP
589AA9468300
589555468300
589332468300
589885468300
589554468300
589000468865
589000468BA8
ENDCHAR
STARTCHAR .notdef
ENCODING -1
SWIDTH 108 0
DWIDTH 1 0
BBX 1 1 0 0
BITMAP
00
ENDCHAR
ENDFONT
